<?xml version="1.0" encoding="iso-8859-1"?>
<!-- Generator: Adobe Illustrator 18.0.0, SVG Export Plug-In . SVG Version: 6.00 Build 0)  -->
<!DOCTYPE svg PUBLIC "-//W3C//DTD SVG 1.1//EN" "http://www.w3.org/Graphics/SVG/1.1/DTD/svg11.dtd">
<svg version="1.1" id="Capa_1" xmlns="http://www.w3.org/2000/svg" xmlns:xlink="http://www.w3.org/1999/xlink" x="0px" y="0px"
	 viewBox="0 0 59 59" style="enable-background:new 0 0 59 59;" xml:space="preserve">
<g>
	<path d="M50,15c-0.553,0-1,0.447-1,1s0.447,1,1,1h7v22H11V17h7c0.553,0,1-0.447,1-1s-0.447-1-1-1h-7V7c0-0.553-0.447-1-1-1H7.858
		C7.411,4.28,5.859,3,4,3C1.794,3,0,4.794,0,7s1.794,4,4,4c1.859,0,3.411-1.28,3.858-3H9v7v1v24v1v6c0,0.553,0.447,1,1,1h7.031
		C15.806,48.912,15,50.359,15,52c0,2.757,2.243,5,5,5s5-2.243,5-5c0-1.641-0.806-3.088-2.031-4h18.062
		C39.806,48.912,39,50.359,39,52c0,2.757,2.243,5,5,5s5-2.243,5-5c0-1.641-0.806-3.088-2.031-4H53c0.553,0,1-0.447,1-1s-0.447-1-1-1
		H11v-5h48v-1V16v-1H50z M4,9C2.897,9,2,8.103,2,7s0.897-2,2-2c0.737,0,1.375,0.405,1.722,1H5C4.447,6,4,6.447,4,7s0.447,1,1,1
		h0.722C5.375,8.595,4.737,9,4,9z"/>
	<path d="M34,2c-7.72,0-14,6.28-14,14s6.28,14,14,14s14-6.28,14-14S41.72,2,34,2z M41.747,12.664l-7.977,8.975
		c0,0-0.001,0.001-0.001,0.002c-0.001,0.001-0.001,0.001-0.001,0.001l-0.02,0.022c-0.059,0.067-0.135,0.104-0.206,0.151
		c-0.046,0.03-0.083,0.074-0.132,0.096C33.279,21.969,33.14,22,33,22c0,0,0,0-0.001,0h0c-0.115,0-0.231-0.021-0.341-0.062
		c-0.031-0.011-0.058-0.035-0.088-0.05c-0.072-0.035-0.146-0.066-0.211-0.12l-6-5c-0.424-0.354-0.481-0.984-0.128-1.409
		c0.354-0.424,0.982-0.48,1.409-0.128l5.256,4.38l7.356-8.276c0.366-0.414,0.998-0.451,1.411-0.083
		C42.077,11.619,42.114,12.252,41.747,12.664z"/>
</g>
<g>
</g>
<g>
</g>
<g>
</g>
<g>
</g>
<g>
</g>
<g>
</g>
<g>
</g>
<g>
</g>
<g>
</g>
<g>
</g>
<g>
</g>
<g>
</g>
<g>
</g>
<g>
</g>
<g>
</g>
</svg>
